<svg version="1.2" xmlns="http://www.w3.org/2000/svg" viewBox="0 0 2048 2048" width="16" height="16">
	<title>stickynote-s-icon</title>
	<defs>
		<filter x="-50%" y="-50%" width="200%" height="200%" id="f1" ><feDropShadow dx="-8.660254037844387" dy="4.999999999999999" stdDeviation="2.916666666666667" flood-color="#000000" flood-opacity=".3"/></filter>
		<filter x="-50%" y="-50%" width="200%" height="200%" id="f2" ><feDropShadow dx="-8.660254037844387" dy="4.999999999999999" stdDeviation="2.916666666666667" flood-color="#000000" flood-opacity=".3"/></filter>
		<filter x="-50%" y="-50%" width="200%" height="200%" id="f3" ><feDropShadow dx="-8.660254037844387" dy="4.999999999999999" stdDeviation="2.916666666666667" flood-color="#000000" flood-opacity=".3"/></filter>
		<filter x="-50%" y="-50%" width="200%" height="200%" id="f4" ><feDropShadow dx="-8.660254037844387" dy="4.999999999999999" stdDeviation="2.916666666666667" flood-color="#000000" flood-opacity=".3"/></filter>
	</defs>
	<style>
		.s0 { filter: url(#f1);fill: #fd4f57 } 
		.s1 { filter: url(#f2);fill: #94d405 } 
		.s2 { filter: url(#f3);fill: #428dd9 } 
		.s3 { filter: url(#f4);fill: #f3df43 } 
		.s4 { fill: #ffffff } 
	</style>
	<path id="Rectangle 1" fill-rule="evenodd" class="s0" d="m640.6 97.8l1310.6 542.8-542.8 1310.6-1310.6-542.8z"/>
	<path id="Rectangle 1" fill-rule="evenodd" class="s1" d="m764.9 55.6l1228.5 709.3-709.3 1228.5-1228.5-709.3z"/>
	<path id="Rectangle 1 copy" fill-rule="evenodd" class="s2" d="m893.6 30l1125.4 863.6-863.6 1125.4-1125.4-863.6z"/>
	<path id="Rectangle 1 copy 2" class="s3" d="m1024.3 21.4l1003.3 1002.9-1002.9 1003.3-1003.3-1002.9zm-133.3 374.6"/>
	<path id="S" class="s4" aria-label="S"  d="m1257.8 665.2h-331.8-4q-49.2 1-93.2 23.6-43 21.5-72.7 58.3-47.1 59.4-47.1 135.2 0 63.5 32.7 115.7 28.7 45.1 74.8 72.7 46.1 27.7 101.4 29.7h40.9q-18.4-15.4-27.6-37.9-8.2-18.4-8.2-38.9 0-29.7 16.4-55.3 8.2-12.3 19.4-21.5h-32.8q-26.6 0-45-19.5-18.4-18.4-18.4-45 0-28.7 22.5-48.1 17.4-15.4 40.9-15.4h335.9q0 0 1 0 1.1 0 1.1 0 32.7-1 54.2-24.6 21.5-21.5 21.5-52.2 0-30.7-21.5-52.2-21.5-23.6-52.2-24.6-1 0-8.2 0zm-245.7 282.6q-33.8 5.1-52.3 33.8-12.2 18.4-12.2 42 0 22.5 11.2 42 17.4 26.6 48.1 33.8 8.2 1 16.4 1 11.3 0 20.5-2 22.5-5.2 37.9-22.6 19.5-22.5 19.5-52.2 0-25.6-15.4-46.1-18.4-24.6-48.1-29.7-6.2-1-13.3-1h-1.1q-6.1 0-11.2 1zm123.9 0h-46.1q18.4 15.4 27.6 38.9 7.2 17.4 7.2 36.9 0 23.6-10.2 45.1-9.3 18.4-24.6 31.7h32.8q25.6 0 44 18.4 19.4 18.5 19.4 46.1 0 30.7-24.5 50.2-17.4 13.3-40 13.3h-333.8q-3.1 0-7.2 0-32.7 2-53.2 26.6-18.4 21.5-18.4 50.2 0 27.6 18.4 49.2 18.4 22.5 47.1 26.6 5.1 1 20.5 1h326.6q41 0 78.9-14.3 40.9-16.4 72.7-46.1 32.8-32.8 50.2-75.8 16.3-38.9 16.3-80.9 0-67.6-37.8-122.9-22.6-32.7-55.3-55.3-50.2-34.8-110.6-38.9z"/>
</svg>